<svg xmlns="http://www.w3.org/2000/svg" viewBox="0 0 400 400">
  <rect width="400" height="400" fill="#f5ebe0"/>
  <rect x="60" y="80" width="50" height="30" rx="4" fill="#c4a882"/>
  <rect x="120" y="70" width="50" height="30" rx="4" fill="#b8956a"/>
  <rect x="180" y="85" width="50" height="30" rx="4" fill="#d4b896"/>
  <rect x="240" y="75" width="50" height="30" rx="4" fill="#a08060"/>
  <rect x="90" y="120" width="50" height="30" rx="4" fill="#b8956a"/>
  <rect x="150" y="115" width="50" height="30" rx="4" fill="#c4a882"/>
  <rect x="210" y="125" width="50" height="30" rx="4" fill="#d4b896"/>
  <rect x="270" y="110" width="50" height="30" rx="4" fill="#a08060"/>
  <rect x="120" y="160" width="50" height="30" rx="4" fill="#c4a882"/>
  <rect x="180" y="155" width="50" height="30" rx="4" fill="#b8956a"/>
  <rect x="240" y="165" width="50" height="30" rx="4" fill="#d4b896"/>
  <rect x="150" y="200" width="50" height="30" rx="4" fill="#a08060"/>
  <rect x="210" y="195" width="50" height="30" rx="4" fill="#c4a882"/>
  <rect x="180" y="240" width="50" height="30" rx="4" fill="#b8956a"/>
  <text x="200" y="340" text-anchor="middle" font-family="Arial,sans-serif" font-size="22" font-weight="bold" fill="#005EB8">JENGA</text>
  <text x="200" y="368" text-anchor="middle" font-family="Arial,sans-serif" font-size="14" fill="#666">Hardwood Blocks</text>
</svg>
